<?xml version="1.0" encoding="UTF-8" standalone="no"?>
<!-- Created with Inkscape (http://www.inkscape.org/) -->

<svg
   width="1024"
   height="768"
   viewBox="0 0 1024 768"
   version="1.1"
   id="svg5"
   inkscape:version="1.2.2 (732a01da63, 2022-12-09, custom)"
   sodipodi:docname="dice"
   xmlns:inkscape="http://www.inkscape.org/namespaces/inkscape"
   xmlns:sodipodi="http://sodipodi.sourceforge.net/DTD/sodipodi-0.dtd"
   xmlns="http://www.w3.org/2000/svg"
   xmlns:svg="http://www.w3.org/2000/svg">
  <sodipodi:namedview
     id="namedview7"
     pagecolor="#ffffff"
     bordercolor="#000000"
     borderopacity="0.25"
     inkscape:showpageshadow="2"
     inkscape:pageopacity="0.0"
     inkscape:pagecheckerboard="false"
     inkscape:deskcolor="#d1d1d1"
     inkscape:document-units="px"
     showgrid="true"
     inkscape:lockguides="true"
     inkscape:zoom="0.70823979"
     inkscape:cx="415.11364"
     inkscape:cy="444.05864"
     inkscape:window-width="1920"
     inkscape:window-height="1016"
     inkscape:window-x="0"
     inkscape:window-y="27"
     inkscape:window-maximized="1"
     inkscape:current-layer="layer1">
    <inkscape:grid
       type="xygrid"
       id="grid9"
       spacingx="32"
       spacingy="32"
       empspacing="8"
       dotted="false" />
  </sodipodi:namedview>
  <defs
     id="defs2" />
  <g
     inkscape:label="Layer 1"
     inkscape:groupmode="layer"
     id="layer1">
    <rect
       style="fill:#ff5252;fill-opacity:1"
       id="rect810"
       width="256"
       height="256"
       x="0"
       y="256" />
    <rect
       style="fill:#5271ff;fill-opacity:1"
       id="rect810-7"
       width="256"
       height="256"
       x="256"
       y="256" />
    <rect
       style="fill:#f1ff52;fill-opacity:1"
       id="rect810-9"
       width="256"
       height="256"
       x="512"
       y="256" />
    <rect
       style="fill:#d252ff;fill-opacity:1"
       id="rect810-2"
       width="256"
       height="256"
       x="768"
       y="256" />
    <rect
       style="fill:#ff9a52;fill-opacity:1"
       id="rect810-0"
       width="256"
       height="256"
       x="256"
       y="0" />
    <rect
       style="fill:#52ffa8;fill-opacity:1"
       id="rect810-23"
       width="256"
       height="256"
       x="256"
       y="512" />
    <path
       id="path237"
       d="m 400,384 a 16,16 0 0 1 -16,16 16,16 0 0 1 -16,-16 16,16 0 0 1 16,-16 16,16 0 0 1 16,16 z" />
    <path
       id="path237-2"
       d="m 144,384 a 16,16 0 0 1 -16,16 16,16 0 0 1 -16,-16 16,16 0 0 1 16,-16 16,16 0 0 1 16,16 z" />
    <path
       id="path237-2-9"
       d="m 208,448 a 16,16 0 0 1 -16,16 16,16 0 0 1 -16,-16 16,16 0 0 1 16,-16 16,16 0 0 1 16,16 z" />
    <path
       id="path237-2-9-1"
       d="M 80,320 A 16,16 0 0 1 64,336 16,16 0 0 1 48,320 16,16 0 0 1 64,304 16,16 0 0 1 80,320 Z" />
    <path
       id="path237-2-9-1-2"
       d="m 592,320 a 16,16 0 0 1 -16,16 16,16 0 0 1 -16,-16 16,16 0 0 1 16,-16 16,16 0 0 1 16,16 z" />
    <path
       id="path237-2-9-1-2-7"
       d="m 592,448 a 16,16 0 0 1 -16,16 16,16 0 0 1 -16,-16 16,16 0 0 1 16,-16 16,16 0 0 1 16,16 z" />
    <path
       id="path237-2-9-1-2-7-0"
       d="m 720,448 a 16,16 0 0 1 -16,16 16,16 0 0 1 -16,-16 16,16 0 0 1 16,-16 16,16 0 0 1 16,16 z" />
    <path
       id="path237-2-9-1-2-7-0-9"
       d="m 720,320 a 16,16 0 0 1 -16,16 16,16 0 0 1 -16,-16 16,16 0 0 1 16,-16 16,16 0 0 1 16,16 z" />
    <path
       id="path237-2-9-1-2-6"
       d="m 848,320 a 16,16 0 0 1 -16,16 16,16 0 0 1 -16,-16 16,16 0 0 1 16,-16 16,16 0 0 1 16,16 z" />
    <path
       id="path237-2-9-1-2-7-06"
       d="m 848,448 a 16,16 0 0 1 -16,16 16,16 0 0 1 -16,-16 16,16 0 0 1 16,-16 16,16 0 0 1 16,16 z" />
    <path
       id="path237-2-9-1-2-6-1"
       d="m 912,320 a 16,16 0 0 1 -16,16 16,16 0 0 1 -16,-16 16,16 0 0 1 16,-16 16,16 0 0 1 16,16 z" />
    <path
       id="path237-2-9-1-2-7-06-8"
       d="m 912,448 a 16,16 0 0 1 -16,16 16,16 0 0 1 -16,-16 16,16 0 0 1 16,-16 16,16 0 0 1 16,16 z" />
    <path
       id="path237-2-9-1-2-7-0-2"
       d="m 976,448 a 16,16 0 0 1 -16,16 16,16 0 0 1 -16,-16 16,16 0 0 1 16,-16 16,16 0 0 1 16,16 z" />
    <path
       id="path237-2-9-1-2-7-0-9-6"
       d="m 976,320 a 16,16 0 0 1 -16,16 16,16 0 0 1 -16,-16 16,16 0 0 1 16,-16 16,16 0 0 1 16,16 z" />
    <path
       id="path237-7"
       d="m 400,640 a 16,16 0 0 1 -16,16 16,16 0 0 1 -16,-16 16,16 0 0 1 16,-16 16,16 0 0 1 16,16 z" />
    <path
       id="path237-7-5"
       d="m 464,576 a 16,16 0 0 1 -16,16 16,16 0 0 1 -16,-16 16,16 0 0 1 16,-16 16,16 0 0 1 16,16 z" />
    <path
       id="path237-7-5-3"
       d="m 464,704 a 16,16 0 0 1 -16,16 16,16 0 0 1 -16,-16 16,16 0 0 1 16,-16 16,16 0 0 1 16,16 z" />
    <path
       id="path237-7-5-3-5"
       d="m 336,704 a 16,16 0 0 1 -16,16 16,16 0 0 1 -16,-16 16,16 0 0 1 16,-16 16,16 0 0 1 16,16 z" />
    <path
       id="path237-7-5-3-6"
       d="m 336,576 a 16,16 0 0 1 -16,16 16,16 0 0 1 -16,-16 16,16 0 0 1 16,-16 16,16 0 0 1 16,16 z" />
    <path
       id="path237-3"
       d="M 336,64 A 16,16 0 0 1 320,80 16,16 0 0 1 304,64 16,16 0 0 1 320,48 16,16 0 0 1 336,64 Z" />
    <path
       id="path237-3-6"
       d="m 464,192 a 16,16 0 0 1 -16,16 16,16 0 0 1 -16,-16 16,16 0 0 1 16,-16 16,16 0 0 1 16,16 z" />
  </g>
</svg>
